<svg width="51" height="32" fill="none" xmlns="http://www.w3.org/2000/svg"><path d="M50.479 27.589l-.12-3.735a2.37 2.37 0 00-2.442-2.3l-.507.015a21.282 21.282 0 00-6.164-10.686l-.032-.03a21.362 21.362 0 00-6.49-4.206l6.55-.2a4.4 4.4 0 008.5-1.732 4.415 4.415 0 00-2.84-3.988A4.351 4.351 0 0045.237.45a4.4 4.4 0 00-4.058 3.045l-11.791.353-.013-.4a2.369 2.369 0 00-2.443-2.3l-3.774.105a2.357 2.357 0 00-2.292 2.438l.013.4-11.791.354a4.4 4.4 0 00-8.5 1.732A4.4 4.4 0 009.174 7.39l6.549-.2A21.45 21.45 0 004.011 22.842l-.63.019a2.377 2.377 0 00-2.3 2.446l.119 3.75a2.368 2.368 0 002.443 2.3l3.751-.112a2.378 2.378 0 002.3-2.446l-.12-3.751a2.366 2.366 0 00-2.442-2.3h-.108A18.527 18.527 0 0121.231 8.382a2.367 2.367 0 002.215 1.35l3.751-.112a2.37 2.37 0 002.122-1.48 18.6 18.6 0 0115.093 13.488l-.231.007a2.378 2.378 0 00-2.3 2.446l.119 3.75a2.369 2.369 0 002.443 2.3l3.75-.112a2.354 2.354 0 002.286-2.43zm-43.753.758l-2.629.08-.084-2.63 2.629-.079.084 2.63zm38.583-24.96a1.456 1.456 0 11-1.318.94 1.472 1.472 0 011.318-.94zM5.026 7.525a1.456 1.456 0 11-.08-2.913 1.456 1.456 0 01.079 2.914zm18.873-.719l-.084-2.629 2.629-.079.042 1.307.042 1.307-2.629.094zm21.006 20.388l-.084-2.629 2.629-.078.084 2.629-2.629.078z" fill="#fff"/></svg>