<svg width="39" height="39" fill="none" xmlns="http://www.w3.org/2000/svg"><path d="M31.688 2.438V0H7.313v2.438H0v8.53c0 6.91 5.255 12.612 11.977 13.328 1.45 2.212 3.176 3.76 5.085 4.484v2.907a2.438 2.438 0 01-2.437 2.438A4.875 4.875 0 009.75 39h19.5a4.875 4.875 0 00-4.875-4.875 2.438 2.438 0 01-2.438-2.438v-2.891c1.914-.718 3.635-2.287 5.086-4.5C33.745 23.58 39 17.878 39 10.97V2.438h-7.313zm-26.813 8.53V7.314H7.37c.186 4.112.845 7.858 1.87 11.054-2.592-1.466-4.365-4.215-4.365-7.398zM9.75 4.876V2.437h2.438v2.438c0 11.185 3.722 20.396 8.53 21.748-.4.113-.804.19-1.218.19-5.385 0-9.75-9.822-9.75-21.938zm24.375 6.094c0 3.183-1.773 5.932-4.364 7.398 1.024-3.196 1.683-6.942 1.869-11.055h2.495v3.657z" fill="#fff"/></svg>